<svg width="861" height="865" viewBox="0 0 861 865" fill="none" xmlns="http://www.w3.org/2000/svg">
<path d="M153.872 220.508C145.752 162.913 152.271 99.284 172.215 44.65C176.926 31.745 187.345 3.74055 202.498 1.07355C212.493 -0.68555 223.763 8.20975 231.083 14.0044C252.306 31.064 275.739 53.742 290.632 76.5779C331.899 59.8589 381.831 55.6789 424.134 70.8209C437.242 50.5649 476.81 9.32695 501.506 1.66785C504.504 0.73835 508.87 1.43475 511.352 3.35785C521.329 11.0875 526.684 43.7239 528.532 55.7149C533.902 90.562 532.597 126.629 529.272 161.494C545.153 187.108 552.094 209.688 553.664 239.708C575.032 269.822 580.447 304.613 563.886 338.396C572.188 344.791 580.581 347.543 590.995 348.734C580.305 356.295 574.89 365.494 565.621 374.655C574.187 376.013 580.789 377.506 587.73 382.9C577.204 383.122 569.947 382.086 559.518 380.439C554.195 388.154 549.465 394.724 543.717 402.105C550.427 405.116 557.468 408.09 562.889 413.191C554.375 412.163 546.355 410.563 538.116 408.188C510.214 436.072 484.271 451.728 445.805 461.69C446.139 468.852 446.643 472.076 444.302 479.088C454.217 498.796 471.161 537.419 485.85 551.495C492.715 558.075 501.019 562.53 510.003 565.498C520.018 568.807 530.374 570.343 540.02 574.821L559.49 469.468L564.702 441.515C566.934 429.417 567.971 416.068 579.158 408.631C583.597 405.68 588.246 404.027 593.632 403.724C605.981 403.214 618.657 403.223 631.031 403.005L711.346 401.659L793.356 400.392C803.736 400.279 815.559 399.227 825.695 400.554C835.129 401.788 843.386 412.93 842.233 422.293C841.365 430.841 839.422 439.786 837.841 448.277L828.906 496.507L816.04 567.749C815.092 573.008 813.458 580.61 812.861 585.729C808.793 620.597 797.88 619.723 767.192 621.125L725.14 623.051L730.835 651.408L810.239 658.343L834.423 660.385C853.8 662.036 860.385 662.449 860.169 684.779C859.995 702.797 859.973 712.797 838.677 714.946L838.681 789.667C838.683 797.153 838.648 806.268 838.687 813.4C838.781 831.098 840.181 838.017 819.686 840.225C816.169 840.604 809.96 841.682 806.157 842.24C790.12 844.739 773.619 847.789 757.525 849.713C683.107 858.61 607.85 861.928 532.956 863.675C525.85 863.841 489.116 865.025 484.492 863.85C478.572 864.474 467.231 864.156 461.158 864.093C457.124 864.979 444.832 864.904 440.453 864.888L407.774 864.616C361.165 864.23 314.59 862.965 268.047 860.446C221.304 857.917 174.248 854.17 128.045 846.5C115.165 844.362 91.8761 840.415 80.7551 834.544C78.3711 833.285 75.5641 831.234 75.0451 828.391C74.7511 826.782 75.3101 825.264 76.3251 824.034C84.1771 814.52 143.446 808.669 158.019 807.341L157.929 713.765C136.743 709.62 118.544 704.438 99.0921 694.525C42.0181 665.44 1.86981 604.537 0.774207 540.111C0.177707 505.028 9.6771 462.581 40.0891 441.517C71.0191 419.916 107.995 438.687 98.0841 477.503C94.9511 490.176 88.9601 501.895 84.5471 514.196C72.9631 545.548 75.4931 580.554 93.1601 609.22C109.787 636.198 131.87 647.743 159.572 659.993C158.953 643.88 158.066 622.029 156.629 606.208C149.141 604.646 142.904 602.384 138.37 595.765C136.195 592.59 135.335 588.527 134.785 584.763C133.408 575.344 129.48 504.91 130.965 498.08C132.607 490.527 137.892 483.079 144.474 479.066C148.024 476.901 152.316 475.616 156.402 474.957C165.464 473.495 175.406 473.858 184.587 473.55L232.039 471.776C239.321 471.49 249.566 471.408 256.52 470.757L260.532 466.573C259.66 460.512 259.36 454.241 260.395 448.174C225.815 433.182 192.834 415.51 170.512 384.001C162.611 380.581 156.799 377.684 150.145 371.968C106.695 334.646 108.458 255.486 153.872 220.508Z" fill="#3E3E3F"/>
</svg>
